<svg xmlns="http://www.w3.org/2000/svg" enable-background="new 0 0 512 512" viewBox="0 0 512 512"><polygon fill="#0030ff" points="464 128 376 80 344 97.4 344 64 256 16 168 64 168 97.4 136 80 48 128 48 240 77.5 256.1 48 272 48 384 256 496 464 384 464 272 434.5 256.1 464 240" class="color3838b2 svgShape"/><polygon fill="#35539e" points="256 384 464 272 256 160 48 272" class="color35359e svgShape"/><polygon fill="#01257d" points="256 496 464 384 464 272 256 384" class="color28287f svgShape"/><polygon fill="#101a33" points="48 272 256 384 256 496 48 384" class="color101033 svgShape"/><polygon fill="#009ecc" points="256 224 344 176 344 64 256 112" class="color00cc82 svgShape"/><polygon fill="#00c6ff" points="168 64 256 112 256 224 168 176" class="color00ffb0 svgShape"/><polygon fill="#01257d" points="376 288 464 240 464 128 376 176" class="color28287f svgShape"/><polygon fill="#0030ff" points="376 176 464 128 376 80 288 128" class="color3838b2 svgShape"/><polygon fill="#4872d8" points="288 128 376 176 376 288 288 240" class="colord8bc48 svgShape"/><polygon fill="#4dcff5" points="136 288 224 240 224 128 136 176" class="colorf5df4d svgShape"/><polygon fill="#0030ff" points="136 176 224 128 136 80 48 128" class="color3838b2 svgShape"/><polygon fill="#101a33" points="48 128 136 176 136 288 48 240" class="color101033 svgShape"/><polygon fill="#01257d" points="256 352 344 304 344 192 256 240" class="color28287f svgShape"/><polygon fill="#0030ff" points="256 240 344 192 256 144 168 192" class="color3838b2 svgShape"/><polygon fill="#101a33" points="168 192 256 240 256 352 168 304" class="color101033 svgShape"/></svg>