<svg xmlns="http://www.w3.org/2000/svg" enable-background="new 0 0 512 512" viewBox="0 0 512 512"><polygon fill="#0030ff" points="376 160 344 177.5 344 64 256 16 168 64 168 177.5 136 160 48 208 48 384 136 432 168 414.5 168 448 256 496 344 448 344 414.5 376 432 464 384 464 208" class="color3838b2 svgShape"/><polygon fill="#0034b2" points="256 368 344 320 344 64 256 112" class="color00b26e svgShape"/><polygon fill="#00c6ff" points="168 64 256 112 256 368 168 320" class="color00ffb0 svgShape"/><polygon fill="#4872d8" points="288 208 376 256 376 432 288 384" class="colord8bc48 svgShape"/><polygon fill="#01257d" points="256 496 344 448 344 328 256 376" class="color28287f svgShape"/><polygon fill="#4dcff5" points="136 432 224 384 224 208 136 256" class="colorf5df4d svgShape"/><polygon fill="#0030ff" points="256 376 344 328 256 280 168 328" class="color3838b2 svgShape"/><polygon fill="#0030ff" points="136 256 224 208 136 160 48 208" class="color3838b2 svgShape"/><polygon fill="#0030ff" points="376 256 464 208 376 160 288 208" class="color3838b2 svgShape"/><polygon fill="#01257d" points="376 432 464 384 464 208 376 256" class="color28287f svgShape"/><polygon fill="#101a33" points="48 208 136 256 136 432 48 384" class="color101033 svgShape"/><polygon fill="#101a33" points="168 328 256 376 256 496 168 448" class="color101033 svgShape"/></svg>