<svg xmlns="http://www.w3.org/2000/svg" enable-background="new 0 0 512 512" viewBox="0 0 512 512"><polygon fill="#0030ff" points="464 128 256 16 168 64 168 97.2 136 80 48 128 48 240 77.5 255.9 48 272 48 384 256 496 344 448 344 414.8 376 432 464 384 464 272 434.5 256.1 464 240" class="colorf5df4d svgShape"/><polygon fill="#01257d" points="376 288 464 240 464 128 376 176" class="color28287f svgShape"/><polygon fill="#01257d" points="376 432 464 384 464 272 376 320" class="color28287f svgShape"/><polygon fill="#0e162b" points="168 64 376 176 376 288 168 176" class="color0e0e2b svgShape"/><polygon fill="#0e162b" points="168 208 376 320 376 432 168 320" class="color0e0e2b svgShape"/><polygon fill="#0030ff" points="256 384 344 336 136 224 48 272" class="colorf5df4d svgShape"/><polygon fill="#01257d" points="256 352 344 304 344 192 256 240" class="color28287f svgShape"/><polygon fill="#01257d" points="256 496 344 448 344 336 256 384" class="color28287f svgShape"/><polygon fill="#101a33" points="48 128 256 240 256 352 48 240" class="color101033 svgShape"/><polygon fill="#101a33" points="48 272 256 384 256 496 48 384" class="color101033 svgShape"/><polygon fill="#385bb2" points="256 240 344 192 136 80 48 128" class="color3838b2 svgShape"/><polygon fill="#385bb2" points="376 176 464 128 256 16 168 64" class="color3838b2 svgShape"/><polygon fill="#00c6ff" points="72 224 72 168 123 196 232 256 232 312" class="color00ffb0 svgShape"/><polygon fill="#002c99" points="72 168 72 224 123 196" class="color009962 svgShape"/><polygon fill="#00c6ff" points="72 368 72 312 123 340 232 400 232 456" class="color00ffb0 svgShape"/><polygon fill="#002c99" points="72 312 72 368 123 340" class="color009962 svgShape"/></svg>