<svg xmlns="http://www.w3.org/2000/svg" enable-background="new 0 0 512 512" viewBox="0 0 512 512"><polygon fill="#00c6ff" points="464 128 256 16 48 128 48 192 68.8 212.8 48 224 48 384 256 496 464 384 464 320 443.2 299.2 464 288" class="colorf5df4d svgShape"/><polygon fill="#0030ff" points="48 128 256 240 256 400 48 192" class="color101033 svgShape"/><polygon fill="#0030ff" points="48 224 256 432 256 496 48 384" class="color101033 svgShape"/><polygon fill="#385bb2" points="256 240 464 128 256 16 48 128" class="color3838b2 svgShape"/><polygon fill="#01257d" points="256 400 464 288 464 128 256 240" class="color28287f svgShape"/><polygon fill="#01257d" points="256 496 464 384 464 320 256 432" class="color28287f svgShape"/></svg>