<svg xmlns="http://www.w3.org/2000/svg" enable-background="new 0 0 512 512" viewBox="0 0 512 512"><polygon fill="#00c6ff" points="464 128 256 16 48 128 48 192 77.7 208 48 224 48 288 77.7 304 48 320 48 384 256 496 464 384 464 320 434.3 304 464 288 464 224 434.3 208 464 192" class="color00ffb0 svgShape"/><polygon fill="#0030ff" points="256 336 464 224 256 112 48 224" class="color35359e svgShape"/><polygon fill="#4dcff5" points="256 336 464 224 256 112 48 224" class="colorf5df4d svgShape"/><polygon fill="#101a33" points="48 128 256 240 256 304 48 192" class="color101033 svgShape"/><polygon fill="#101a33" points="48 320 256 432 256 496 48 384" class="color101033 svgShape"/><polygon fill="#385bb2" points="256 240 464 128 256 16 48 128" class="color3838b2 svgShape"/><polygon fill="#01257d" points="256 304 464 192 464 128 256 240" class="color28287f svgShape"/><polygon fill="#01257d" points="256 496 464 384 464 320 256 432" class="color28287f svgShape"/><polygon fill="#101a33" points="48 224 256 336 256 400 48 288" class="color101033 svgShape"/><polygon fill="#01257d" points="256 400 464 288 464 224 256 336" class="color28287f svgShape"/></svg>